<svg width="30" height="30" viewBox="0 0 30 30" fill="none" xmlns="http://www.w3.org/2000/svg">
<rect width="30" height="30" rx="5" fill="white"/>
<g clip-path="url(#clip0_413_14507)">
<path d="M13.5056 3.70858L9.00246 10.2864C8.79435 10.5902 8.6842 10.8963 8.6842 11.1507C8.6842 11.6425 9.07895 11.9468 9.7397 11.9468H19.4723C20.1323 11.9468 20.5263 11.6429 20.5263 11.1522C20.5263 10.8974 20.4161 10.5962 20.2074 10.2918L15.7043 3.71088C15.4143 3.28766 15.0239 3.05329 14.6047 3.05329C14.1858 3.05319 13.7956 3.28488 13.5056 3.70858Z" fill="#507BE9"/>
</g>
<g clip-path="url(#clip1_413_14507)">
<path d="M13.5056 27.0809L9.00246 20.5031C8.79435 20.1993 8.6842 19.8932 8.6842 19.6388C8.6842 19.147 9.07895 18.8427 9.7397 18.8427H19.4723C20.1323 18.8427 20.5263 19.1466 20.5263 19.6373C20.5263 19.8921 20.4161 20.1933 20.2074 20.4977L15.7043 27.0786C15.4143 27.5018 15.0239 27.7362 14.6047 27.7362C14.1858 27.7363 13.7956 27.5046 13.5056 27.0809Z" fill="#8D8D8D"/>
</g>
<defs>
<clipPath id="clip0_413_14507">
<rect width="11.8421" height="11.8421" fill="white" transform="matrix(0 -1 1 0 8.6842 13.4211)"/>
</clipPath>
<clipPath id="clip1_413_14507">
<rect width="11.8421" height="11.8421" fill="white" transform="matrix(0 1 1 0 8.6842 17.3684)"/>
</clipPath>
</defs>
</svg>
