<svg width="30" height="30" viewBox="0 0 30 30" fill="none" xmlns="http://www.w3.org/2000/svg">
<rect width="30" height="30" rx="5" fill="white"/>
<g clip-path="url(#clip0_413_14571)">
<path d="M13.5057 3.70858L9.00258 10.2864C8.79447 10.5902 8.68433 10.8963 8.68433 11.1507C8.68433 11.6425 9.07907 11.9468 9.73983 11.9468H19.4725C20.1325 11.9468 20.5264 11.6429 20.5264 11.1522C20.5264 10.8974 20.4162 10.5962 20.2075 10.2918L15.7044 3.71088C15.4144 3.28766 15.024 3.05329 14.6049 3.05329C14.1859 3.05319 13.7957 3.28488 13.5057 3.70858Z" fill="#8D8D8D"/>
</g>
<g clip-path="url(#clip1_413_14571)">
<path d="M13.5057 27.0809L9.00258 20.5031C8.79447 20.1993 8.68433 19.8932 8.68433 19.6388C8.68433 19.147 9.07907 18.8427 9.73983 18.8427H19.4725C20.1325 18.8427 20.5264 19.1466 20.5264 19.6373C20.5264 19.8921 20.4162 20.1933 20.2075 20.4977L15.7044 27.0786C15.4144 27.5018 15.024 27.7362 14.6049 27.7362C14.1859 27.7363 13.7957 27.5046 13.5057 27.0809Z" fill="#8D8D8D"/>
</g>
<defs>
<clipPath id="clip0_413_14571">
<rect width="11.8421" height="11.8421" fill="white" transform="matrix(0 -1 1 0 8.68433 13.4211)"/>
</clipPath>
<clipPath id="clip1_413_14571">
<rect width="11.8421" height="11.8421" fill="white" transform="matrix(0 1 1 0 8.68433 17.3684)"/>
</clipPath>
</defs>
</svg>
