<svg width="20" height="21" viewBox="0 0 20 21" fill="none" xmlns="http://www.w3.org/2000/svg">
<path d="M6.875 8.93762H13.125C13.4703 8.93762 13.75 8.65793 13.75 8.31262V7.68762C13.75 7.34231 13.4703 7.06262 13.125 7.06262H6.875C6.52969 7.06262 6.25 7.34231 6.25 7.68762V8.31262C6.25 8.65793 6.52969 8.93762 6.875 8.93762ZM6.25 12.0626C6.25 12.4079 6.52969 12.6876 6.875 12.6876H13.125C13.4703 12.6876 13.75 12.4079 13.75 12.0626V11.4376C13.75 11.0923 13.4703 10.8126 13.125 10.8126H6.875C6.52969 10.8126 6.25 11.0923 6.25 11.4376V12.0626ZM10 16.7943C9.35859 16.7943 8.71719 16.5966 8.16953 16.2009L0 10.2993V18.6251C0 19.6607 0.839453 20.5001 1.875 20.5001H18.125C19.1605 20.5001 20 19.6607 20 18.6251V10.2993L11.8305 16.2009C11.2828 16.5962 10.6414 16.7943 10 16.7943ZM19.2816 6.86535C18.9359 6.59426 18.6082 6.33918 18.125 5.97434V4.25012C18.125 3.21457 17.2855 2.37512 16.25 2.37512H13.2207C13.102 2.28918 12.9914 2.20871 12.8676 2.11887C12.2109 1.63957 10.9062 0.486449 10 0.500121C9.09375 0.486449 7.78945 1.63957 7.13242 2.11887C7.00859 2.20871 6.89805 2.28918 6.7793 2.37512H3.75C2.71445 2.37512 1.875 3.21457 1.875 4.25012V5.97434C1.3918 6.33879 1.06406 6.59426 0.718359 6.86535C0.494593 7.04072 0.313639 7.26467 0.189185 7.52028C0.0647315 7.77589 3.85081e-05 8.05645 0 8.34075L0 8.75676L3.75 11.4657V4.25012H16.25V11.4657L20 8.75676V8.34075C20 7.76496 19.7352 7.22082 19.2816 6.86535Z" fill="white"/>
</svg>
