<svg width="50" height="19" viewBox="0 0 50 19" fill="none" xmlns="http://www.w3.org/2000/svg">
<path d="M48.0859 17.2178C48.9076 17.1127 49.4886 16.3613 49.3834 15.5396L47.6706 2.14869C47.5655 1.32695 46.8141 0.746017 45.9924 0.851126C45.1707 0.956235 44.5897 1.70759 44.6948 2.52932L46.2174 14.4323L34.3144 15.9549C33.4926 16.06 32.9117 16.8113 33.0168 17.6331C33.1219 18.4548 33.8733 19.0357 34.695 18.9306L48.0859 17.2178ZM2.18839 17.998C11.4616 10.5898 18.3459 7.15367 24.9328 7.03447C31.5062 6.9155 38.1546 10.0943 46.9781 16.9166L48.8131 14.5432C39.8625 7.62278 32.5186 3.89669 24.8785 4.03496C17.2518 4.17298 9.70145 8.15622 0.315916 15.6541L2.18839 17.998Z" fill="white"/>
</svg>
