<svg width="35" height="50" viewBox="0 0 35 50" fill="none" xmlns="http://www.w3.org/2000/svg">
<path d="M10.6561 48.4295C11.1575 49.0889 12.0986 49.217 12.758 48.7155L23.504 40.544C24.1635 40.0426 24.2915 39.1015 23.7901 38.4421C23.2886 37.7827 22.3476 37.6546 21.6881 38.156L12.1361 45.4196L4.87258 35.8676C4.37114 35.2082 3.43007 35.0801 2.77064 35.5815C2.11121 36.083 1.98314 37.024 2.48458 37.6835L10.6561 48.4295ZM34.6589 4.00838C27.0519 3.1978 21.1049 2.43094 16.5049 1.81087C11.9278 1.1939 8.62339 0.713326 6.37596 0.487446C5.25472 0.374755 4.31982 0.316747 3.5825 0.349029C2.93851 0.377226 2.05754 0.478767 1.41463 1.03959C0.555622 1.78891 0.632077 2.80718 0.806157 3.42914C0.972511 4.02349 1.32073 4.66002 1.67614 5.2572C3.16169 7.75327 6.14394 11.7891 8.38687 18.4868C10.6207 25.1573 12.1104 34.4851 10.3638 47.3193L13.3364 47.7238C15.1432 34.4471 13.6159 24.6542 11.2316 17.5342C8.85641 10.4415 5.61946 6.01701 4.25411 3.7229C3.8968 3.12254 3.74282 2.79091 3.69513 2.62054C3.65518 2.47778 3.80576 2.93478 3.3867 3.30033C3.18373 3.47738 3.10851 3.37266 3.71374 3.34616C4.22564 3.32375 4.98342 3.3626 6.07596 3.47241C8.2561 3.69153 11.4636 4.15846 16.1042 4.78398C20.7218 5.40643 26.698 6.17707 34.341 6.99149L34.6589 4.00838Z" fill="white"/>
</svg>
