<svg width="20" height="21" viewBox="0 0 20 21" fill="none" xmlns="http://www.w3.org/2000/svg">
<path d="M14.4998 18.8318C11.0976 18.8274 7.83593 17.4739 5.43017 15.0681C3.02441 12.6624 1.67091 9.40073 1.6665 5.99847C1.6665 4.9818 2.07037 4.00678 2.78926 3.28789C3.50815 2.569 4.48317 2.16513 5.49984 2.16513C5.71512 2.16349 5.93004 2.18303 6.1415 2.22347C6.34593 2.25372 6.54689 2.30396 6.7415 2.37347C6.87838 2.42149 7.00035 2.50441 7.09535 2.61403C7.19035 2.72364 7.25509 2.85616 7.28317 2.99847L8.42484 7.99847C8.45561 8.13419 8.4519 8.27545 8.41406 8.40937C8.37621 8.54329 8.30543 8.6656 8.20817 8.76513C8.09984 8.8818 8.0915 8.89013 7.0665 9.42347C7.88733 11.2242 9.3275 12.6703 11.1248 13.4985C11.6665 12.4651 11.6748 12.4568 11.7915 12.3485C11.891 12.2512 12.0133 12.1804 12.1473 12.1426C12.2812 12.1047 12.4225 12.101 12.5582 12.1318L17.5582 13.2735C17.6959 13.3054 17.8233 13.3719 17.9282 13.4667C18.0332 13.5614 18.1123 13.6814 18.1582 13.8151C18.2285 14.0129 18.2815 14.2165 18.3165 14.4235C18.35 14.6329 18.3668 14.8447 18.3665 15.0568C18.3511 16.0691 17.9359 17.0343 17.2115 17.7415C16.487 18.4488 15.5122 18.8407 14.4998 18.8318Z" fill="white"/>
</svg>
