<svg width="156" height="156" viewBox="0 0 156 156" fill="none" xmlns="http://www.w3.org/2000/svg">
<path d="M50.2734 0C22.553 0 0 22.553 0 50.2734V59.4141H9.14062V50.2734C9.14062 27.5922 27.5922 9.14062 50.2734 9.14062C55.9946 9.14062 61.5289 10.2914 66.7241 12.5601L70.3852 4.18732C64.0286 1.40522 57.2624 0 50.2734 0Z" fill="#507BE9"/>
<path d="M70.3852 4.1858C64.0286 1.40552 57.2624 0 50.2734 0V9.14062C55.9946 9.14062 61.5289 10.2914 66.7241 12.5601L70.3852 4.1858Z" fill="#507BE9"/>
<path d="M86.8359 82.2656H73.125V45.7031H86.8359C94.408 45.7031 100.547 51.842 100.547 59.4141V68.5547C100.547 76.1268 94.408 82.2656 86.8359 82.2656Z" fill="#3B4A51"/>
<path d="M13.7109 45.7031C6.15073 45.7031 0 51.8542 0 59.4141V68.5547C0 76.1149 6.15103 82.2656 13.7109 82.2656H22.8516V45.7031H13.7109Z" fill="#465A61"/>
<path d="M83.7309 101.458L62.0837 120.703H38.4631L16.816 101.458C7.15528 104.126 0 112.902 0 123.398V156H100.547V123.398C100.547 112.902 93.3916 104.126 83.7309 101.458Z" fill="#507BE9"/>
<path d="M100.547 123.398C100.547 112.902 93.3916 104.126 83.7309 101.458L62.0837 120.703H50.2734V156H100.547V123.398Z" fill="#507BE9"/>
<path d="M77.6957 100.547H22.852C20.749 100.547 18.7518 100.924 16.8164 101.459L29.3229 138.984L50.2738 128.509L71.2248 138.984L83.7313 101.459C81.7959 100.924 79.7987 100.547 77.6957 100.547Z" fill="#F2F2F2"/>
<path d="M83.7309 101.459C81.7955 100.924 79.7983 100.547 77.6953 100.547H50.2734V128.509L71.2244 138.984L83.7309 101.459Z" fill="#E7E7F2"/>
<path d="M81.9 45.7031L68.5547 36.5625H31.9922L18.6469 45.7031C18.3727 47.1656 18.2812 48.7189 18.2812 50.2734V77.6953C18.2812 79.2486 18.3727 80.8031 18.6469 82.2656L31.9922 86.8359L21.3891 91.4062C24.5883 98.0783 29.9819 103.38 36.7459 106.58C37.4766 113.435 43.2345 118.828 50.2734 118.828C57.3123 118.828 63.0703 113.435 63.801 106.58C74.6783 101.461 82.2656 90.4922 82.2656 77.6953V50.2734C82.2656 48.7189 82.1742 47.1656 81.9 45.7031Z" fill="#FFCEBF"/>
<path d="M63.801 106.58C74.6783 101.461 82.2656 90.4922 82.2656 77.6953V50.2734C82.2656 48.7189 82.1742 47.1656 81.9 45.7031L68.5547 36.5625H50.2734V118.828C57.3123 118.828 63.0703 113.435 63.801 106.58Z" fill="#FFCEBF"/>
<path d="M18.6465 45.7031H41.1324C44.6973 45.7031 47.8045 44.332 50.273 42.1383V18.2812C34.014 18.2812 20.8244 30.4736 18.6465 45.7031Z" fill="#465A61"/>
<path d="M81.9 45.7031C79.7209 30.4566 66.5194 18.2812 50.2734 18.2812V42.1383C52.742 44.332 55.8492 45.7031 59.4141 45.7031H81.9Z" fill="#465A61"/>
<path d="M63.9844 0V66.818L87.9334 54.8438H146.25V0H63.9844Z" fill="#3164E5"/>
<path d="M105.117 0H146.25V54.8438H105.117V0Z" fill="#3164E5"/>
<path d="M100.547 22.8516H109.688V31.9922H100.547V22.8516Z" fill="#90A4AE"/>
<path d="M118.828 22.8516H127.969V31.9922H118.828V22.8516Z" fill="#90A4AE"/>
<path d="M82.2656 22.8516H91.4062V31.9922H82.2656V22.8516Z" fill="#90A4AE"/>
<path d="M105.117 22.8516H109.688V31.9922H105.117V22.8516Z" fill="#90A4AE"/>
<path d="M50.2737 82.2656H18.6182C19.0849 85.5005 20.049 88.5666 21.414 91.4062H50.2737V82.2656Z" fill="#465A61"/>
</svg>
