<svg width="18" height="15" viewBox="0 0 18 15" fill="none" xmlns="http://www.w3.org/2000/svg">
<path d="M0 14.1504V10.6055C0 9.41406 0.195312 8.17383 0.585938 6.88477C0.996094 5.57617 1.58203 4.32617 2.34375 3.13477C3.10547 1.92383 4.02344 0.878906 5.09766 0L8.17383 2.13867C7.27539 3.42773 6.58203 4.75586 6.09375 6.12305C5.60547 7.4707 5.36133 8.93555 5.36133 10.5176V14.1504H0ZM9.22852 14.1504V10.6055C9.22852 9.41406 9.42383 8.17383 9.81445 6.88477C10.2246 5.57617 10.8105 4.32617 11.5723 3.13477C12.334 1.92383 13.252 0.878906 14.3262 0L17.4023 2.13867C16.5039 3.42773 15.8105 4.75586 15.3223 6.12305C14.834 7.4707 14.5898 8.93555 14.5898 10.5176V14.1504H9.22852Z" fill="#507BE9"/>
</svg>
