<svg width="24" height="23" viewBox="0 0 24 23" fill="none" xmlns="http://www.w3.org/2000/svg">
<g clip-path="url(#clip0_224_6428)">
<path fill-rule="evenodd" clip-rule="evenodd" d="M10.1274 3.46366H21.9292C22.6217 3.46366 23.1831 4.03333 23.1831 4.73603C23.1831 5.43872 22.6217 6.00838 21.9292 6.00838H10.1274C9.60969 7.4893 8.21593 8.55309 6.58127 8.55309C4.94662 8.55309 3.55281 7.4893 3.03519 6.00838H1.26466C0.572147 6.00838 0.0107422 5.43872 0.0107422 4.73603C0.0107422 4.03333 0.572147 3.46366 1.26466 3.46366H3.03519C3.55286 1.98274 4.94662 0.918945 6.58127 0.918945C8.21593 0.918945 9.60969 1.98274 10.1274 3.46366ZM5.32863 4.73657C5.32863 5.43815 5.89113 6.00894 6.58255 6.00894C7.27396 6.00894 7.83646 5.43815 7.83646 4.73657C7.83646 4.03499 7.27396 3.46421 6.58255 3.46421C5.89113 3.46421 5.32863 4.03499 5.32863 4.73657ZM10.1274 17.7142H21.9292C22.6217 17.7142 23.1831 18.2839 23.1831 18.9866C23.1831 19.6894 22.6217 20.2589 21.9292 20.2589H10.1274C9.60969 21.7399 8.21593 22.8037 6.58127 22.8037C4.94662 22.8037 3.55281 21.7399 3.03519 20.2589H1.26466C0.572147 20.2589 0.0107422 19.6894 0.0107422 18.9866C0.0107422 18.2839 0.572147 17.7142 1.26466 17.7142H3.03519C3.55286 16.2334 4.94662 15.1696 6.58127 15.1696C8.21593 15.1696 9.60974 16.2334 10.1274 17.7142ZM5.32863 18.9869C5.32863 19.6884 5.89113 20.2592 6.58255 20.2592C7.27396 20.2592 7.83646 19.6884 7.83646 18.9869C7.83646 18.2852 7.27396 17.7145 6.58255 17.7145C5.89113 17.7145 5.32863 18.2852 5.32863 18.9869ZM21.9292 10.5891H20.1587C19.641 9.10812 18.2473 8.04433 16.6127 8.04433C14.978 8.04433 13.5842 9.10812 13.0665 10.5891H1.26466C0.572147 10.5891 0.0107422 11.1587 0.0107422 11.8614C0.0107422 12.5641 0.572147 13.1338 1.26466 13.1338H13.0665C13.5842 14.6147 14.978 15.6784 16.6127 15.6784C18.2473 15.6784 19.641 14.6147 20.1587 13.1338H21.9292C22.6217 13.1338 23.1831 12.5641 23.1831 11.8614C23.1831 11.1587 22.6217 10.5891 21.9292 10.5891ZM16.6138 13.134C15.9224 13.134 15.3599 12.5632 15.3599 11.8616C15.3599 11.16 15.9224 10.5893 16.6138 10.5893C17.3053 10.5893 17.8677 11.16 17.8677 11.8616C17.8677 12.5632 17.3053 13.134 16.6138 13.134Z" fill="#507BE9"/>
</g>
<defs>
<clipPath id="clip0_224_6428">
<rect width="24" height="23" fill="white"/>
</clipPath>
</defs>
</svg>
