<svg width="20" height="21" viewBox="0 0 20 21" fill="none" xmlns="http://www.w3.org/2000/svg">
<path fill-rule="evenodd" clip-rule="evenodd" d="M20 10.5C20 16.0228 15.5228 20.5 10 20.5C4.47715 20.5 0 16.0228 0 10.5C0 4.97715 4.47715 0.5 10 0.5C15.5228 0.5 20 4.97715 20 10.5ZM10.3583 7.88244C9.38575 8.287 7.44179 9.12433 4.52659 10.3944C4.05321 10.5827 3.80523 10.7668 3.78266 10.9469C3.7445 11.2512 4.12561 11.3711 4.64458 11.5343C4.71517 11.5565 4.78832 11.5795 4.8633 11.6038C5.37388 11.7698 6.0607 11.964 6.41776 11.9717C6.74163 11.9787 7.10312 11.8452 7.50222 11.5711C10.226 9.7325 11.632 8.80317 11.7202 8.78314C11.7826 8.76901 11.8688 8.75123 11.9273 8.80321C11.9858 8.85517 11.9801 8.95358 11.9738 8.98C11.9361 9.14092 10.4401 10.5317 9.66592 11.2515C9.42458 11.4758 9.25342 11.635 9.21842 11.6713C9.14 11.7528 9.06008 11.8298 8.98333 11.9038C8.509 12.3611 8.15328 12.704 9.003 13.264C9.41142 13.5331 9.73817 13.7556 10.0642 13.9776C10.4202 14.2201 10.7752 14.4619 11.2347 14.7631C11.3517 14.8398 11.4635 14.9195 11.5724 14.9971C11.9867 15.2925 12.359 15.5578 12.8188 15.5155C13.0861 15.4909 13.3621 15.2397 13.5022 14.4903C13.8335 12.7193 14.4847 8.88208 14.6352 7.30082C14.6484 7.16227 14.6318 6.98497 14.6185 6.90715C14.6052 6.82932 14.5773 6.71842 14.4762 6.63633C14.3563 6.53912 14.1714 6.51862 14.0887 6.52007C13.7125 6.5267 13.1355 6.72735 10.3583 7.88244Z" fill="white"/>
</svg>
