<svg width="20" height="21" viewBox="0 0 20 21" fill="none" xmlns="http://www.w3.org/2000/svg">
<path d="M10.0001 2.1665C8.35191 2.1665 6.74074 2.65525 5.37033 3.57092C3.99992 4.4866 2.93182 5.78809 2.30109 7.31081C1.67036 8.83353 1.50533 10.5091 1.82687 12.1256C2.14842 13.7421 2.94209 15.227 4.10753 16.3924C5.27297 17.5578 6.75782 18.3515 8.37433 18.673C9.99084 18.9946 11.6664 18.8296 13.1891 18.1988C14.7118 17.5681 16.0133 16.5 16.929 15.1296C17.8447 13.7592 18.3334 12.148 18.3334 10.4998C18.3334 9.40549 18.1179 8.32185 17.6991 7.31081C17.2803 6.29976 16.6665 5.3811 15.8926 4.60728C15.1188 3.83346 14.2002 3.21963 13.1891 2.80084C12.1781 2.38205 11.0944 2.1665 10.0001 2.1665ZM13.3334 11.3332H10.0001C9.77907 11.3332 9.56711 11.2454 9.41083 11.0891C9.25455 10.9328 9.16675 10.7208 9.16675 10.4998V7.1665C9.16675 6.94549 9.25455 6.73353 9.41083 6.57725C9.56711 6.42097 9.77907 6.33317 10.0001 6.33317C10.2211 6.33317 10.4331 6.42097 10.5893 6.57725C10.7456 6.73353 10.8334 6.94549 10.8334 7.1665V9.6665H13.3334C13.5544 9.6665 13.7664 9.7543 13.9227 9.91058C14.079 10.0669 14.1668 10.2788 14.1668 10.4998C14.1668 10.7208 14.079 10.9328 13.9227 11.0891C13.7664 11.2454 13.5544 11.3332 13.3334 11.3332Z" fill="white"/>
</svg>
