<svg width="20" height="21" viewBox="0 0 20 21" fill="none" xmlns="http://www.w3.org/2000/svg">
<path d="M13.0696 0.5H6.93041C1.32808 0.5 0 1.82808 0 7.43041V13.5696C0 19.1719 1.32808 20.5 6.93041 20.5H13.0696C18.6719 20.5 20 19.1719 20 13.5696V7.43041C20 1.82808 18.6588 0.5 13.0696 0.5ZM16.1457 14.7671H14.6939C14.1439 14.7671 13.9746 14.3308 12.9852 13.3283C12.1259 12.4953 11.7453 12.3846 11.5334 12.3846C11.234 12.3846 11.149 12.469 11.149 12.8796V14.1914C11.149 14.5433 11.0384 14.7546 10.1072 14.7546C8.56723 14.7546 6.85854 13.8233 5.66045 12.0884C3.85363 9.54597 3.35927 7.64165 3.35927 7.24791C3.35927 7.03605 3.44364 6.83793 3.8505 6.83793H5.30546C5.67357 6.83793 5.81357 7.0073 5.95669 7.40103C6.67604 9.47785 7.87413 11.2972 8.36849 11.2972C8.55098 11.2972 8.63536 11.2128 8.63536 10.7472V8.60225C8.57973 7.6129 8.05912 7.52791 8.05912 7.17667C8.05912 7.0073 8.19912 6.83793 8.42349 6.83793H10.7115C11.0209 6.83793 11.1347 7.0073 11.1347 7.37166V10.2653C11.1347 10.5778 11.2746 10.6884 11.359 10.6884C11.5415 10.6884 11.6978 10.5778 12.0359 10.2391C13.0808 9.06723 13.8296 7.26041 13.8296 7.26041C13.9271 7.04855 14.0964 6.85043 14.4645 6.85043H15.9195C16.3557 6.85043 16.4532 7.0748 16.3557 7.38729C16.1732 8.23351 14.3927 10.7466 14.3927 10.7466C14.2396 11.0003 14.1808 11.1109 14.3927 11.394C14.5489 11.6059 15.057 12.0453 15.3951 12.439C16.017 13.1452 16.4951 13.7377 16.6226 14.1477C16.7657 14.5546 16.5545 14.7664 16.1439 14.7664L16.1457 14.7671Z" fill="white"/>
</svg>
